TITLE ""
FILE "1Q_t_0959-0968.mp3" MP3
  TRACK 01 AUDIO
    TITLE "1Q_t_0959-0968_01"
    INDEX 01 00:00:00
  TRACK 02 AUDIO
    TITLE "1Q_t_0959-0968_02"
    INDEX 01 00:01:18
  TRACK 03 AUDIO
    TITLE "1Q_t_0959-0968_03"
    INDEX 01 00:01:27
  TRACK 04 AUDIO
    TITLE "1Q_t_0959-0968_04"
    INDEX 01 00:03:26
  TRACK 05 AUDIO
    TITLE "1Q_t_0959-0968_05"
    INDEX 01 00:03:32
  TRACK 06 AUDIO
    TITLE "1Q_t_0959-0968_06"
    INDEX 01 00:07:42
  TRACK 07 AUDIO
    TITLE "1Q_t_0959-0968_07"
    INDEX 01 00:08:12
  TRACK 08 AUDIO
    TITLE "1Q_t_0959-0968_08"
    INDEX 01 00:09:37
  TRACK 09 AUDIO
    TITLE "1Q_t_0959-0968_09"
    INDEX 01 00:09:45
  TRACK 10 AUDIO
    TITLE "1Q_t_0959-0968_10"
    INDEX 01 00:10:54
  TRACK 11 AUDIO
    TITLE "1Q_t_0959-0968_11"
    INDEX 01 00:10:62
  TRACK 12 AUDIO
    TITLE "1Q_t_0959-0968_12"
    INDEX 01 00:14:71
  TRACK 13 AUDIO
    TITLE "1Q_t_0959-0968_13"
    INDEX 01 00:15:41
  TRACK 14 AUDIO
    TITLE "1Q_t_0959-0968_14"
    INDEX 01 00:16:60
  TRACK 15 AUDIO
    TITLE "1Q_t_0959-0968_15"
    INDEX 01 00:16:70
  TRACK 16 AUDIO
    TITLE "1Q_t_0959-0968_16"
    INDEX 01 00:19:68
  TRACK 17 AUDIO
    TITLE "1Q_t_0959-0968_17"
    INDEX 01 00:20:01
  TRACK 18 AUDIO
    TITLE "1Q_t_0959-0968_18"
    INDEX 01 00:23:56
  TRACK 19 AUDIO
    TITLE "1Q_t_0959-0968_19"
    INDEX 01 00:24:28
  TRACK 20 AUDIO
    TITLE "1Q_t_0959-0968_20"
    INDEX 01 00:25:42
  TRACK 21 AUDIO
    TITLE "1Q_t_0959-0968_21"
    INDEX 01 00:25:51
  TRACK 22 AUDIO
    TITLE "1Q_t_0959-0968_22"
    INDEX 01 00:28:07
  TRACK 23 AUDIO
    TITLE "1Q_t_0959-0968_23"
    INDEX 01 00:28:13
  TRACK 24 AUDIO
    TITLE "1Q_t_0959-0968_24"
    INDEX 01 00:33:22
  TRACK 25 AUDIO
    TITLE "1Q_t_0959-0968_25"
    INDEX 01 00:33:65
  TRACK 26 AUDIO
    TITLE "1Q_t_0959-0968_26"
    INDEX 01 00:34:72
  TRACK 27 AUDIO
    TITLE "1Q_t_0959-0968_27"
    INDEX 01 00:35:07
  TRACK 28 AUDIO
    TITLE "1Q_t_0959-0968_28"
    INDEX 01 00:36:20
  TRACK 29 AUDIO
    TITLE "1Q_t_0959-0968_29"
    INDEX 01 00:36:28
  TRACK 30 AUDIO
    TITLE "1Q_t_0959-0968_30"
    INDEX 01 00:41:70
  TRACK 31 AUDIO
    TITLE "1Q_t_0959-0968_31"
    INDEX 01 00:42:40
  TRACK 32 AUDIO
    TITLE "1Q_t_0959-0968_32"
    INDEX 01 00:43:71
  TRACK 33 AUDIO
    TITLE "1Q_t_0959-0968_33"
    INDEX 01 00:44:04
  TRACK 34 AUDIO
    TITLE "1Q_t_0959-0968_34"
    INDEX 01 00:46:06
  TRACK 35 AUDIO
    TITLE "1Q_t_0959-0968_35"
    INDEX 01 00:46:10
  TRACK 36 AUDIO
    TITLE "1Q_t_0959-0968_36"
    INDEX 01 00:51:16
  TRACK 37 AUDIO
    TITLE "1Q_t_0959-0968_37"
    INDEX 01 00:51:63
  TRACK 38 AUDIO
    TITLE "1Q_t_0959-0968_38"
    INDEX 01 00:53:16
  TRACK 39 AUDIO
    TITLE "1Q_t_0959-0968_39"
    INDEX 01 00:53:28
  TRACK 40 AUDIO
    TITLE "1Q_t_0959-0968_40"
    INDEX 01 00:56:01
  TRACK 41 AUDIO
    TITLE "1Q_t_0959-0968_41"
    INDEX 01 00:56:07
  TRACK 42 AUDIO
    TITLE "1Q_t_0959-0968_42"
    INDEX 01 01:00:09
  TRACK 43 AUDIO
    TITLE "1Q_t_0959-0968_43"
    INDEX 01 01:00:52
  TRACK 44 AUDIO
    TITLE "1Q_t_0959-0968_44"
    INDEX 01 01:01:51
  TRACK 45 AUDIO
    TITLE "1Q_t_0959-0968_45"
    INDEX 01 01:01:59
  TRACK 46 AUDIO
    TITLE "1Q_t_0959-0968_46"
    INDEX 01 01:04:34
  TRACK 47 AUDIO
    TITLE "1Q_t_0959-0968_47"
    INDEX 01 01:04:44
  TRACK 48 AUDIO
    TITLE "1Q_t_0959-0968_48"
    INDEX 01 01:08:14
  TRACK 49 AUDIO
    TITLE "1Q_t_0959-0968_49"
    INDEX 01 01:08:59
  TRACK 50 AUDIO
    TITLE "1Q_t_0959-0968_50"
    INDEX 01 01:10:13
  TRACK 51 AUDIO
    TITLE "1Q_t_0959-0968_51"
    INDEX 01 01:10:21
  TRACK 52 AUDIO
    TITLE "1Q_t_0959-0968_52"
    INDEX 01 01:11:67
  TRACK 53 AUDIO
    TITLE "1Q_t_0959-0968_53"
    INDEX 01 01:12:02
  TRACK 54 AUDIO
    TITLE "1Q_t_0959-0968_54"
    INDEX 01 01:17:07
  TRACK 55 AUDIO
    TITLE "1Q_t_0959-0968_55"
    INDEX 01 01:17:52
  TRACK 56 AUDIO
    TITLE "1Q_t_0959-0968_56"
    INDEX 01 01:18:65
  TRACK 57 AUDIO
    TITLE "1Q_t_0959-0968_57"
    INDEX 01 01:18:71
  TRACK 58 AUDIO
    TITLE "1Q_t_0959-0968_58"
    INDEX 01 01:21:32
  TRACK 59 AUDIO
    TITLE "1Q_t_0959-0968_59"
    INDEX 01 01:21:38
  TRACK 60 AUDIO
    TITLE "1Q_t_0959-0968_60"
    INDEX 01 01:25:34
